<svg width="24" height="24" viewBox="0 0 24 24" fill="none" xmlns="http://www.w3.org/2000/svg">
<path fill-rule="evenodd" clip-rule="evenodd" d="M5.47007 5.47007C5.6107 5.32962 5.80132 5.25073 6.00007 5.25073C6.19882 5.25073 6.38945 5.32962 6.53007 5.47007L18.5301 17.4701C18.6038 17.5387 18.6629 17.6215 18.7039 17.7135C18.7448 17.8055 18.7669 17.9048 18.7687 18.0056C18.7704 18.1063 18.7519 18.2063 18.7142 18.2997C18.6765 18.3931 18.6203 18.4779 18.5491 18.5491C18.4779 18.6203 18.3931 18.6765 18.2997 18.7142C18.2063 18.7519 18.1063 18.7704 18.0056 18.7687C17.9048 18.7669 17.8055 18.7448 17.7135 18.7039C17.6215 18.6629 17.5387 18.6038 17.4701 18.5301L5.47007 6.53007C5.32962 6.38945 5.25073 6.19882 5.25073 6.00007C5.25073 5.80132 5.32962 5.6107 5.47007 5.47007Z" fill="black"/>
<path fill-rule="evenodd" clip-rule="evenodd" d="M18.5301 5.47007C18.6705 5.6107 18.7494 5.80132 18.7494 6.00007C18.7494 6.19882 18.6705 6.38945 18.5301 6.53007L6.53009 18.5301C6.38792 18.6626 6.19987 18.7347 6.00557 18.7312C5.81127 18.7278 5.62588 18.6491 5.48847 18.5117C5.35106 18.3743 5.27234 18.1889 5.26892 17.9946C5.26549 17.8003 5.33761 17.6122 5.47009 17.4701L17.4701 5.47007C17.6107 5.32962 17.8013 5.25073 18.0001 5.25073C18.1988 5.25073 18.3895 5.32962 18.5301 5.47007Z" fill="black"/>
</svg>
